<svg width="1560" height="1259" viewBox="0 0 1560 1259" fill="none" xmlns="http://www.w3.org/2000/svg">
<path fill-rule="evenodd" clip-rule="evenodd" d="M101.549 2.75635L98.9072 5.5127L100.513 6.46193L102.12 7.41169L105.717 3.70559L109.315 1.0202e-05H106.753C104.339 1.0202e-05 104.041 0.158041 101.549 2.75635ZM741.368 3.83894C739.517 8.02543 736.795 15.4408 731.6 30.451C724.509 50.9441 718.888 60.1613 710.924 64.3604C708.795 65.4823 707.251 65.8593 704.034 66.042C698.993 66.3287 695.335 65.2314 689.406 61.6565C685.885 59.5333 685.166 59.2908 682.807 59.4315L680.159 59.5895L683.467 61.9847C693.532 69.273 701.486 71.3725 709.408 68.8325C719.833 65.4902 726.508 55.8934 734.648 32.5459C740.836 14.7982 742.705 9.75431 744.912 4.85642L747.1 1.0202e-05H745.083C743.073 1.0202e-05 743.061 0.0120855 741.368 3.83894ZM907.604 1.70632C906.373 5.40664 900.91 15.7274 897.897 20.0415C890.37 30.8222 883.213 38.2581 862.099 57.2374C823.464 91.9663 817.679 101.311 796.615 163.018C789.574 183.643 785.099 195.21 780.305 205.17C770.054 226.467 759.179 237.756 745.205 241.602C739.627 243.137 731.536 243.118 725.764 241.558C711.588 237.724 700.18 229.734 671.739 203.719C653.897 187.399 644.794 180.233 633.615 173.709C630.056 171.632 617.282 164.913 605.228 158.777C573.146 142.448 562.477 135.527 549.482 122.615C536.262 109.479 520.474 86.4762 508.385 62.7396C506.474 58.9858 504.864 55.8477 504.808 55.7669C504.752 55.6855 504.007 56.0331 503.152 56.5386L501.596 57.458L504.183 62.4614C512.296 78.1552 520.778 92.139 529.522 104.236C541.72 121.111 551.349 130.74 566.238 140.955C575.927 147.602 581.967 150.988 604.181 162.225C625.457 172.987 633.802 177.612 641.255 182.773C646.869 186.661 656.361 194.48 664.809 202.178C694.021 228.792 703.131 235.855 715.571 241.528C729.462 247.863 741.763 247.948 754.05 241.795C759.15 239.241 760.425 238.275 766.201 232.583C771.215 227.642 774.922 222.593 779.606 214.324C785.899 203.215 790.47 191.838 801.27 160.393C815.488 118.997 822.806 103.72 835.974 87.9405C842.294 80.3671 848.757 73.9902 863.628 60.6553C880.229 45.77 886.615 39.6073 892.368 32.9239C900.332 23.672 905.611 15.5327 909.294 6.82524C912.203 -0.0498668 912.198 1.0202e-05 910.016 1.0202e-05C908.391 1.0202e-05 908.103 0.203192 907.604 1.70632ZM604.742 3.62788C604.308 4.49154 603.954 5.31949 603.954 5.46754C603.954 6.12172 613.208 13.9844 617.029 16.5764C621.07 19.318 631.985 25.5216 631.985 25.0775C631.985 24.9594 631.639 23.8169 631.215 22.538C630.525 20.4563 630.086 20.0226 627.011 18.3903C621.595 15.5164 613.738 9.88032 609.457 5.79988L605.53 2.05755L604.742 3.62788ZM377.224 9.91865C376.669 10.2809 377.394 13.1438 380.893 24.4086C383.291 32.1295 385.323 38.5095 385.408 38.5867C385.868 39.0052 388.905 38.1089 388.731 37.606C388.619 37.2799 386.604 30.8123 384.255 23.232C380.516 11.1671 379.855 9.45138 378.95 9.4582C378.382 9.46293 377.606 9.66979 377.224 9.91865ZM0.812407 23.9818C0.271142 25.6188 0.00866432 28.2019 0.0254833 31.7258L0.0509666 37.0138L1.79606 32.0607C3.53351 27.1319 3.5381 27.0946 2.75423 24.3167C2.32102 22.7816 1.88933 21.5257 1.79555 21.5257C1.70177 21.5257 1.25938 22.6309 0.812407 23.9818ZM77.116 30.712C76.5166 31.1446 74.1492 34.1178 71.8547 37.3193C67.7651 43.0257 67.6892 43.1864 68.02 45.4587C68.206 46.7334 68.5154 47.7651 68.7085 47.7509C68.9017 47.7367 70.7355 45.2865 72.7838 42.3059C74.8322 39.3254 77.6414 35.4377 79.0272 33.6662C80.413 31.8948 81.5465 30.3287 81.5465 30.1859C81.5465 29.5827 78.1165 29.9901 77.116 30.712ZM392.697 55.7453C392.137 56.0677 391.61 56.3869 391.526 56.4546C391.279 56.6542 397.775 74.3845 402.868 87.4155C421.138 134.155 441.888 173.475 465.346 205.807C477.646 222.762 488.041 234.434 500.782 245.599C504.092 248.5 514.547 256.364 519.893 259.974C525.16 263.531 527.1 264.783 532.265 267.963C537.143 270.967 551.252 278.55 562.416 284.167C612.068 309.154 621.834 314.7 637.118 326.589C642.946 331.122 651.73 338.425 653.449 340.166C653.901 340.624 655.377 341.944 656.729 343.099C659.176 345.19 661.966 347.688 664.645 350.187C665.419 350.909 667.497 352.799 669.263 354.387C671.028 355.975 672.95 357.747 673.534 358.325C674.117 358.902 675.386 360.054 676.352 360.885C677.319 361.715 679.601 363.759 681.423 365.427C683.245 367.094 686.656 370.148 689.002 372.212C691.349 374.276 693.562 376.248 693.92 376.595C694.667 377.318 696.327 378.696 702.064 383.354C704.307 385.175 706.4 386.903 706.716 387.195C707.033 387.487 707.721 388.025 708.245 388.391C708.77 388.757 711.034 390.392 713.277 392.023C731.776 405.48 748.123 412.385 763.016 413.033C773.688 413.497 782.341 411.776 791.451 407.379C795.462 405.443 802.983 400.627 805.727 398.238C808.178 396.104 815.264 388.644 817.238 386.119C818.354 384.693 819.501 383.238 819.786 382.888C820.973 381.433 821.499 380.644 824.973 375.125C834.968 359.243 843.792 339.257 854.993 307.135C858.72 296.445 858.964 295.473 859.594 288.775C859.961 284.886 860.208 281.648 860.143 281.582C860.079 281.516 858.001 287.415 855.526 294.692C840.307 339.44 830.671 361.216 818.099 379.275C814.08 385.049 805.955 393.688 800.737 397.736C784.668 410.199 765.416 413.097 745.498 406.049C727.859 399.808 710.35 387.264 678.11 357.77C634.964 318.299 626.799 312.565 581.755 290.097C548.769 273.644 535.981 266.598 522.448 257.421C503.47 244.551 489.75 231.783 476.211 214.392C446.206 175.851 420.233 126.288 399.008 67.07C396.658 60.5157 394.507 55.1542 394.226 55.1558C393.946 55.1573 393.258 55.4225 392.697 55.7453ZM46.6945 83.6143C41.6381 96.0142 33.8255 118.873 27.7431 139.065L25.786 145.563L26.9654 146.546C27.6137 147.087 28.3247 147.53 28.5454 147.53C28.7655 147.53 29.5876 145.344 30.3725 142.674C35.6939 124.557 46.0697 94.468 51.8044 80.5215C51.9782 80.0978 49.4992 78.6781 48.7245 78.7579C48.696 78.7611 47.7827 80.9462 46.6945 83.6143ZM256.362 153.367C240.18 155.274 223.428 165.483 208.021 182.827C195.091 197.382 184.003 213.824 162.074 250.958C149.35 272.505 143.831 281.55 137.245 291.647L131.423 300.573L132.063 302.583L132.703 304.593L133.636 303.37C137.921 297.757 151.277 276.11 170.738 243.237C197.15 198.622 214.431 177.139 233.307 165.455C251.509 154.187 271.466 153.654 290.616 163.926C302.625 170.368 315.359 182.638 327.811 199.769C337.513 213.116 346.118 227.43 365.608 262.643C372.999 275.997 381.399 290.939 384.274 295.847C388.89 303.727 401.268 323.358 402.974 325.504C403.769 326.504 407.654 331.777 409.007 333.692C409.567 334.485 410.255 335.391 410.536 335.705C410.816 336.018 411.816 337.219 412.759 338.374C421.23 348.755 426.456 354.071 437.548 363.593C447.759 372.358 463.855 383.934 480.253 394.306C484.119 396.751 487.903 399.161 488.662 399.662C489.422 400.163 490.502 400.816 491.063 401.114C491.623 401.411 492.77 402.119 493.611 402.689C494.452 403.258 495.599 403.966 496.159 404.264C496.72 404.561 497.867 405.257 498.708 405.811C499.549 406.364 501.087 407.297 502.126 407.883C510.748 412.746 533.147 428.046 541.491 434.772C544.628 437.301 552.137 443.7 553.699 445.176C556.81 448.115 567.294 458.968 569.551 461.586C572.794 465.346 575.627 468.882 576.145 469.814C576.407 470.287 577.153 471.263 577.801 471.983C578.45 472.703 578.98 473.456 578.98 473.654C578.98 473.853 579.281 474.328 579.649 474.71C580.214 475.295 584.92 482.481 586.993 485.921C595.272 499.665 613.432 536.81 622.662 558.881C624.473 563.213 626.264 567.465 626.64 568.332C628.39 572.354 634.753 589.212 637.738 597.733C643.922 615.38 651.457 641.419 654.223 654.697C654.674 656.863 655.225 659.462 655.447 660.472C667.531 715.379 667.41 772.239 655.119 815.09C651.451 827.878 644.607 843.878 637.674 855.874C623.616 880.2 609.111 897.589 571.845 934.79C549.101 957.493 540.036 966.951 530.936 977.464C503.808 1008.81 490.094 1032.7 460.494 1100.17C448.844 1126.73 447.561 1129.6 441.644 1142.37C417.59 1194.27 396.418 1223.77 370.017 1242.15C362.718 1247.24 355.691 1251.6 348.102 1255.76L342.24 1258.98L344.931 1258.98C347.977 1258.99 350.188 1257.98 359.482 1252.31C367.836 1247.22 379.529 1239.07 382.286 1236.42C382.735 1235.98 384.432 1234.45 386.056 1233C396.428 1223.78 407.897 1209.63 418.34 1193.17C420.194 1190.24 421.966 1187.38 422.278 1186.8C422.59 1186.23 424.519 1182.8 426.566 1179.19C435.96 1162.62 444.161 1145.37 462.879 1102.8C483.495 1055.92 493.755 1035.35 507.006 1014.33C510.326 1009.07 518.367 997.672 521.967 993.126C535.172 976.456 546.921 963.766 573.068 937.927C591.325 919.886 601.675 909.059 611.654 897.564C612.885 896.146 614.236 894.602 614.657 894.133C615.077 893.663 617.367 890.807 619.745 887.786C622.123 884.765 624.255 882.056 624.482 881.767C626.316 879.439 632.298 870.742 635.316 866.017C650.552 842.161 660.009 817.252 664.318 789.627C670.276 751.42 669.136 712.502 660.789 669.135C651.187 619.253 632.3 566.452 604.147 510.783C595.555 493.795 591.721 486.843 586.369 478.554C579.566 468.017 573.831 460.867 564.223 450.945C548.195 434.394 532.999 423.004 497.943 401.267C464.591 380.585 453.959 373.179 438.582 359.913C414.881 339.465 400.997 319.745 367.976 259.621C341.612 211.62 328.675 192.228 312.207 176.029C304.699 168.643 298.476 164.059 290.255 159.858C278.784 153.997 268.206 151.971 256.362 153.367ZM252.284 283.751C239.501 286.579 227.423 294.909 215.527 309.103C206.349 320.053 198.688 331.604 182.704 358.587C168.958 381.793 161.954 392.995 157.363 399.125C156.11 400.797 155.925 401.464 156.058 403.83L156.213 406.587L159.563 401.882C166.989 391.45 171.088 384.937 184.991 361.475C204.668 328.268 216.37 311.584 226.267 302.627C227.515 301.497 228.908 300.218 229.363 299.785C239.237 290.387 253.434 285.205 265.193 286.706C275.003 287.958 283.019 291.549 291.51 298.496C294.169 300.671 302.865 309.63 304.919 312.31C306.104 313.857 307.319 315.392 307.619 315.723C307.919 316.053 309.584 318.331 311.318 320.786C313.053 323.24 314.653 325.485 314.875 325.774C315.727 326.883 319.56 332.815 319.56 333.022C319.56 333.143 320.707 335.032 322.109 337.222C323.51 339.412 324.657 341.323 324.657 341.469C324.657 341.615 325.287 342.75 326.059 343.992C328.147 347.355 327.936 346.982 338.747 366.462C358.359 401.799 366.105 414.126 377.235 427.703C382.58 434.224 385.195 436.916 392.156 443.066C401.66 451.464 412.833 459.678 427.254 468.869C429.722 470.442 432.36 472.138 433.115 472.639C433.871 473.14 434.949 473.794 435.509 474.091C436.07 474.388 437.217 475.097 438.058 475.666C438.899 476.235 440.045 476.944 440.606 477.241C441.167 477.538 442.313 478.248 443.154 478.818C443.995 479.388 445.027 480.02 445.448 480.222C446.945 480.941 457.014 487.446 463.031 491.582C468.149 495.101 470.83 497.077 475.773 500.98C478.096 502.814 484.335 508.228 486.423 510.222C494.483 517.918 498.733 522.916 506.353 533.656C514.091 544.563 533.076 583.55 542.505 607.899C548.366 623.032 549.577 626.411 552.887 636.847C558.196 653.584 560.933 664.136 563.985 679.635C564.098 680.213 564.315 681.276 564.467 681.998C565.343 686.178 567.297 699.005 567.985 705.099C571.501 736.246 569.741 767.513 563.143 791.134C558.404 808.097 550.408 824.28 538.9 840.195C530.783 851.419 523.39 859.59 494.873 888.855C463.046 921.517 456.874 928.718 445.825 946.082C436.59 960.596 426.402 981.137 410.541 1017.22C390.771 1062.2 380.717 1081.06 367.488 1097.99C358.543 1109.43 349.369 1117.75 336.889 1125.72C289.163 1156.21 231.259 1160.74 177.737 1138.17C142.57 1123.34 110.83 1092.34 71.0825 1034.02C68.3273 1029.98 60.5692 1018.29 53.8421 1008.03C47.115 997.783 35.3198 979.946 27.631 968.395C19.9417 956.845 10.6362 942.742 6.95286 937.056L0.254833 926.717L0.0983655 929.385C-0.0565729 932.021 0.0214059 932.176 6.72402 942.611C10.4543 948.418 13.7462 953.434 14.0392 953.757C14.3328 954.08 15.5891 955.97 16.8317 957.957C18.0738 959.944 19.2368 961.688 19.4162 961.832C19.5956 961.977 20.7475 963.649 21.9758 965.549C26.9292 973.208 29.3216 976.809 29.6228 977.058C29.7971 977.202 31.505 979.801 33.4188 982.833C35.3321 985.865 37.0501 988.464 37.2362 988.608C37.4227 988.753 41.104 994.312 45.4173 1000.96C49.7311 1007.61 54.8655 1015.53 56.8277 1018.55C58.7899 1021.57 60.6446 1024.32 60.9494 1024.66C61.2542 1024.99 62.2811 1026.53 63.2322 1028.07C64.1832 1029.61 65.2301 1031.16 65.5588 1031.51C65.8875 1031.87 66.6867 1033.05 67.3345 1034.14C67.9817 1035.23 68.7539 1036.38 69.049 1036.69C69.3446 1037.01 70.5 1038.66 71.6167 1040.37C72.7334 1042.08 73.7731 1043.59 73.9275 1043.74C74.0824 1043.88 74.9998 1045.17 75.9662 1046.6C76.933 1048.03 78.1027 1049.68 78.5655 1050.27C79.0282 1050.87 81.0277 1053.59 83.0082 1056.34C84.9893 1059.08 86.7945 1061.56 87.0198 1061.85C87.2456 1062.14 88.5136 1063.79 89.8388 1065.52C91.1634 1067.26 92.5512 1069.03 92.9222 1069.46C93.2933 1069.89 94.3834 1071.3 95.3442 1072.58C96.3049 1073.86 97.4353 1075.29 97.8558 1075.77C98.2763 1076.24 99.423 1077.64 100.404 1078.87C104.238 1083.71 108.26 1088.17 117.159 1097.47C129.194 1110.05 137.645 1117.45 149.335 1125.63C161.205 1133.94 174.186 1140.5 188.067 1145.19C200.515 1149.41 208.801 1151.42 220.94 1153.2C224.024 1153.65 227.234 1154.15 228.075 1154.31C230.695 1154.82 258.478 1155 261.968 1154.54C263.79 1154.3 266.657 1153.95 268.339 1153.78C270.021 1153.6 271.884 1153.36 272.479 1153.24C273.074 1153.12 274.387 1152.89 275.395 1152.72C287.746 1150.7 305.513 1145.16 317.267 1139.67C322.879 1137.05 331.722 1132.32 335.497 1129.93C337.394 1128.72 339.041 1127.74 339.159 1127.74C339.68 1127.74 350.244 1119.98 353.63 1117.11C357.908 1113.48 364.491 1106.6 368.837 1101.22C382.593 1084.2 393.853 1063.29 414.368 1016.7C427.634 986.565 436.521 968.14 443.844 955.586C445.427 952.872 447.181 949.865 447.741 948.904C449.321 946.196 456.988 934.994 458.563 933.091C459.339 932.154 460.547 930.636 461.247 929.718C468.373 920.381 473.367 915.054 510.634 877.042C524.034 863.374 528.163 858.882 535.486 850.004C545.815 837.483 556.589 819.259 562.122 804.954C573.57 775.353 576.357 736.002 570.011 693.548C564.192 654.617 550.236 612.234 528.522 567.544C514.413 538.508 506.53 526.085 493.907 512.996C481.488 500.118 470.167 491.628 442.39 474.362C399.972 447.997 386.435 436.326 369.297 411.351C363.217 402.491 355.946 390.197 343.54 367.804C329.788 342.984 325.924 336.348 319.676 326.824C306.347 306.507 294.504 294.414 281.59 287.935C274.952 284.604 270.172 283.438 262.223 283.209C257.811 283.082 254.49 283.263 252.284 283.751ZM252.01 410.287C240.046 412.971 228.2 423.645 215.287 443.377C213.019 446.843 207.077 456.529 202.081 464.903C191.613 482.45 189.492 485.788 183.59 493.999C175.303 505.528 166.418 513.841 154.834 520.902C147.274 525.511 141.099 528.49 124.868 535.36C99.6111 546.049 90.2307 551.242 79.6434 560.395C68.52 570.011 59.3643 584.252 50.069 606.395C31.9285 649.61 23.7519 704.469 28.2768 752.613C31.8378 790.507 42.9164 821.126 67.6933 861.554C73.2002 870.54 78.5685 878.974 79.2535 879.715C79.5445 880.03 81.0379 882.274 82.5725 884.703C84.1071 887.131 85.6131 889.391 85.9199 889.725C86.2262 890.06 87.2522 891.596 88.1997 893.138C89.1471 894.681 90.0737 896.061 90.2582 896.205C90.5824 896.459 101.394 912.859 110.506 926.919C112.939 930.673 115.179 934.018 115.484 934.352C115.788 934.687 116.813 936.223 117.76 937.765C118.708 939.307 119.613 940.687 119.772 940.832C119.931 940.976 121.183 942.748 122.554 944.769C125.262 948.761 138.016 966.455 138.869 967.403C139.158 967.724 140.082 968.873 140.923 969.956C141.763 971.04 142.808 972.313 143.245 972.786C143.681 973.258 145.287 975.172 146.813 977.038C149.953 980.878 161.399 992.863 165.665 996.777C170.105 1000.85 179.847 1008.33 184.087 1010.92C186.577 1012.44 197.361 1017.93 199.789 1018.91C209.092 1022.67 219.583 1025.55 230.114 1027.22C236.859 1028.3 239.229 1028.42 250.246 1028.29C260.415 1028.16 263.903 1027.91 269.038 1026.96C284.204 1024.17 299.848 1018.34 311.406 1011.18C312.947 1010.23 314.668 1009.18 315.228 1008.86C316.488 1008.14 320.742 1005.25 321.089 1004.89C321.229 1004.74 322.96 1003.27 324.935 1001.63C329.493 997.835 334.758 992.139 338.673 986.767C340.355 984.459 341.847 982.453 341.99 982.308C342.313 981.982 345.07 977.69 345.868 976.27C346.193 975.693 347.985 972.503 349.851 969.183C354.278 961.305 360.292 948.673 367.976 931.119C378.946 906.054 389.073 885.971 394.736 878.05C399.277 871.7 400.779 869.656 401.077 869.429C401.266 869.285 401.802 868.593 402.267 867.892C404.693 864.239 417.927 850.246 436.314 831.891C445.203 823.017 451.695 815.728 457.825 807.74C461.423 803.051 467.219 793.575 470.028 787.789C484.109 758.789 485.08 716.217 472.676 671.655C466.881 650.837 459.091 630.989 447.785 608.233C438.307 589.157 434.393 583.061 425.581 573.651C416.851 564.329 407.884 557.563 387.474 544.892C357.356 526.195 347.606 517.634 335.239 499.029C330.276 491.562 327.43 486.708 316.62 467.266C302.582 442.02 295.545 431.519 286.863 422.861C279.942 415.959 274.408 412.566 266.81 410.564C262.238 409.359 256.617 409.254 252.01 410.287ZM256.107 412.968C255.546 413.095 253.826 413.461 252.284 413.78C249.083 414.444 242.497 417.489 241.072 418.966C240.932 419.111 239.869 419.892 238.71 420.701C236.491 422.251 228.969 430.073 226.801 433.085C226.1 434.058 225 435.473 224.354 436.228C222.236 438.71 213.328 452.623 206.667 463.853C199.183 476.471 191.573 488.931 191.114 489.317C190.943 489.461 190.032 490.744 189.092 492.168C185.93 496.952 179.561 504.772 175.516 508.836C171.689 512.681 170.967 513.344 167.425 516.267C163.903 519.174 155.245 524.637 148.822 528.005C141.449 531.872 141.192 531.989 126.907 537.987C121.721 540.164 116.561 542.366 115.439 542.881C104.006 548.129 100.922 549.672 96.0506 552.585C86.7104 558.168 77.6063 565.863 72.6039 572.4C71.7757 573.482 70.4755 575.135 69.7141 576.075C67.6229 578.653 62.7118 587.397 58.6982 595.685C48.4911 616.766 40.6423 641.375 35.9488 667.019C32.2435 687.264 30.8776 702.991 30.8862 725.312C30.9015 764.585 36.1684 790.934 50.2561 822.219C59.2313 842.15 68.4435 857.668 94.8381 897.312C101.683 907.595 110.609 921.061 114.672 927.238C133.706 956.178 145.169 971.312 158.916 985.653C174.565 1001.98 188.059 1011.36 204.982 1017.68C240.508 1030.94 277.99 1027.75 309.736 1008.76C331.975 995.461 343.069 979.736 364.14 931.644C379.679 896.18 387.637 881.408 399.133 866.692C401.798 863.281 411.509 852.833 422.013 842.073C442.852 820.728 447.58 815.615 453.276 808.265C466.334 791.415 473.205 775.265 476.394 753.925C477.703 745.166 477.691 717.786 476.374 707.724C474.938 696.755 472.719 685.83 469.123 672.023C467.156 664.47 461.072 646.267 458.682 640.784C458.178 639.629 456.665 635.967 455.32 632.646C452.311 625.222 440.288 600.366 436.829 594.418C435.432 592.017 432.958 588.129 431.332 585.778C428.244 581.315 417.624 569.89 414.103 567.244C412.982 566.402 411.95 565.56 411.81 565.374C411.355 564.769 399.856 556.399 399.068 556.099C398.648 555.939 397.616 555.288 396.775 554.651C395.199 553.459 375.742 541.293 375.41 541.293C375.116 541.293 362.717 532.682 359.992 530.587C353.548 525.629 351.941 524.207 346.584 518.718C343.908 515.974 340.121 511.604 338.171 509.005C336.22 506.406 334.498 504.161 334.343 504.017C332.975 502.741 321.417 483.232 313.502 468.841C311.199 464.654 309.103 460.874 308.843 460.441C308.583 460.007 306.953 457.172 305.22 454.14C293.969 434.449 283.283 421.853 273.529 416.78C271.854 415.909 269.184 414.769 267.598 414.247C264.683 413.287 257.983 412.542 256.107 412.968ZM954.094 492.307C951.992 493.327 941.556 498.002 930.904 502.697C886.451 522.291 870.37 530.723 851.936 544.105C839.494 553.138 826.747 565.284 818.522 575.944C801.459 598.061 790.184 625.074 785.908 654.08C782.438 677.624 783.519 709.228 788.757 737.387C793.449 762.609 797.231 777.863 813.422 836.878C821.092 864.833 827.757 892.983 829.893 906.443C830.03 907.309 830.501 910.145 830.939 912.743C831.378 915.342 831.885 918.65 832.066 920.094C832.248 921.537 832.484 923.191 832.591 923.769C833.044 926.226 835.37 947.583 836.08 955.795C837.274 969.615 838.778 995.589 840.184 1026.67C841.486 1055.44 842.583 1075.43 843.513 1087.31C844.069 1094.43 845.923 1114.26 846.31 1117.24C846.441 1118.25 846.657 1119.9 846.789 1120.91C846.92 1121.92 847.163 1123.93 847.328 1125.38C847.808 1129.57 848.13 1131.76 849.612 1140.86C851.074 1149.86 850.971 1149.27 851.933 1154.11C852.406 1156.5 852.839 1158.69 852.894 1158.98C856.085 1175.65 864.49 1203.36 870.73 1217.78C871.105 1218.64 872.497 1221.95 873.824 1225.13C877.122 1233.02 882.805 1245.96 886.105 1253.09C888.812 1258.93 888.857 1258.99 890.606 1258.99H892.373L889.286 1252.3C880.893 1234.1 870.669 1209.32 866.73 1197.64C859.399 1175.88 853.976 1150.47 850.413 1121.18C847.396 1096.36 845.957 1075.47 843.491 1020.63C839.334 928.212 835.882 905.573 813.506 823.998C796.868 763.338 791.796 740.329 788.69 711.399C787.579 701.06 787.146 677.396 787.897 668.085C789.225 651.627 792.657 635.099 797.615 621.3C802.15 608.676 811.771 590.08 817.685 582.507C818.135 581.93 819.984 579.539 821.792 577.196C825.221 572.75 834.733 562.591 839.219 558.583C843.855 554.44 846.669 552.084 848.583 550.744C849.202 550.31 850.202 549.517 850.807 548.98C852.26 547.69 865.684 538.547 867.961 537.297C868.942 536.758 870.088 536.05 870.509 535.725C871.251 535.15 873.943 533.641 884.525 527.869C891.024 524.324 906.544 516.991 919.946 511.134C925.693 508.622 931.083 506.248 931.924 505.859C932.765 505.47 937.81 503.222 943.136 500.864C955.592 495.35 960.72 492.89 960.72 492.43C960.72 492.089 958.385 490.314 958.062 490.41C957.982 490.433 956.196 491.287 954.094 492.307ZM251.775 536.851C243.443 539.248 236.583 546.547 225.802 564.487C214.333 583.572 210.95 588.575 206.207 593.461C200.147 599.703 193.113 603.869 176.854 610.842C160.73 617.757 154.138 621.843 147.477 629.05C135.961 641.508 125.4 670.339 121.543 699.849C120.43 708.357 120.003 727.894 120.738 736.6C121.931 750.717 124.729 763.079 129.354 774.664C130.862 778.442 139.128 795.061 141.196 798.473C142.307 800.307 143.216 801.86 143.216 801.923C143.216 802.093 156.3 822.228 157.353 823.677C157.847 824.358 159.742 827.214 161.564 830.025C169.814 842.753 176.272 852.51 177.74 854.466C177.956 854.755 179.738 857.234 181.698 859.976C185.173 864.834 185.802 865.675 187.718 868.03C200.831 884.144 211.835 892.722 225.782 897.701C235.454 901.155 238.815 901.699 250.501 901.706C262.443 901.714 265.862 901.19 274.83 897.975C289.396 892.752 299.326 885.102 307.11 873.104C311.425 866.454 315.076 859.154 322.602 842.128C334.483 815.25 338.163 809.647 355.127 792.604C358.01 789.708 360.814 787.016 361.359 786.623C363.226 785.276 374.122 772.07 376.983 767.685C383.595 757.553 386.576 748.477 387.884 734.5C389.995 711.918 383.638 684.963 369.171 655.156C359.625 635.489 354.173 629.465 334.984 617.38C320.762 608.424 316.105 604.973 310.627 599.326C304.652 593.166 301.493 588.439 292.021 571.482C284.391 557.825 281.091 552.551 277.009 547.494C273.594 543.263 268.395 539.141 264.542 537.609C260.824 536.131 255.398 535.809 251.775 536.851ZM253.479 539.767C248.367 540.744 242.883 545.205 237.035 553.144C234.471 556.625 223.743 573.977 223.743 574.644C223.743 574.82 223.17 575.739 222.469 576.685C221.768 577.632 221.195 578.56 221.195 578.749C221.195 579.102 217.25 584.919 214.196 589.07C212.507 591.365 206.434 597.976 204.546 599.574C202.019 601.715 194.425 606.317 189.621 608.62C182.099 612.225 181.072 612.696 180.734 612.696C179.656 612.696 165.055 619.605 161.197 621.942C155.563 625.353 148.737 631.846 145.483 636.888C139.682 645.876 132.447 664.101 129.033 678.323C125.232 694.16 124.094 704.656 124.14 723.474C124.17 736.092 124.35 739.595 125.284 745.82C128.367 766.361 135.953 784.745 150.82 807.705C160.834 823.17 178.296 849.555 182.115 854.991C198.505 878.321 211.649 889.839 228.153 895.336C236.504 898.117 242.106 899.002 251.265 898.989C262.838 898.974 272.064 896.767 282.1 891.615C297.907 883.5 304.487 874.921 317.438 845.541C327.313 823.14 331.276 815.633 337.802 806.973C339.661 804.507 347.612 795.756 355.471 787.527C370.786 771.492 374.571 766.688 378.425 758.388C382.14 750.391 383.893 742.639 384.543 731.35C385.378 716.835 381.748 695.259 375.799 679.373C375.097 677.496 373.945 674.425 373.241 672.548C369.998 663.905 361.054 645.803 357.678 641.047C353.26 634.825 343.906 626.631 335.098 621.267C318.33 611.056 309.328 604.084 304.033 597.208C302.921 595.764 301.883 594.464 301.725 594.32C300.685 593.367 292.057 578.889 288.584 572.269C284.454 564.395 277.661 553.373 275.584 551.176C275.223 550.793 274.274 549.59 273.476 548.501C272.677 547.412 270.507 545.341 268.652 543.898C263.88 540.186 258.686 538.772 253.479 539.767ZM1051.95 560.624C1047.89 562.579 1040.2 566.505 1034.88 569.349C1010.47 582.38 999.532 587.82 983.655 594.813C955.222 607.335 947.161 611.207 935.278 618.052C918.114 627.939 902.918 640.63 892.97 653.385C880.272 669.667 871.387 690.381 867.524 712.712C864.601 729.608 864.772 751.066 868.001 772.564C868.305 774.585 868.657 776.948 868.785 777.814C868.912 778.68 869.109 779.743 869.223 780.176C869.337 780.609 869.551 781.791 869.697 782.801C869.967 784.652 870.74 788.77 871.274 791.202C871.433 791.924 871.764 793.459 872.01 794.614C873.619 802.158 874.374 805.319 877.111 815.989C880.155 827.859 885.918 849.277 887.815 855.779C888.363 857.656 889.304 861.082 889.906 863.392C890.508 865.702 891.311 868.773 891.689 870.217C895.627 885.233 900.724 907.562 901.757 914.318C901.889 915.185 902.242 917.311 902.54 919.044C902.839 920.776 903.221 923.257 903.389 924.556C903.558 925.856 903.789 927.509 903.903 928.231C906.034 941.727 907.975 967.895 909.746 1006.98C911.202 1039.12 912.725 1063.1 914.046 1074.71C914.161 1075.72 914.408 1077.97 914.596 1079.7C914.785 1081.43 915.029 1083.44 915.14 1084.16C915.251 1084.88 915.588 1087.36 915.889 1089.67C916.19 1091.98 916.53 1094.47 916.646 1095.19C916.762 1095.91 916.997 1097.42 917.169 1098.54C917.509 1100.75 917.639 1101.48 918.399 1105.42C918.676 1106.87 919.006 1108.64 919.131 1109.36C920.891 1119.48 924.928 1134.61 929.013 1146.38C936.682 1168.49 953.113 1203.66 966.784 1227.23C968.627 1230.41 970.367 1233.42 970.651 1233.93C971.698 1235.81 980.373 1249.36 981.994 1251.64C987.389 1259.26 987.135 1258.99 989.067 1258.99H990.859L988.227 1255.19C971.094 1230.41 955.733 1202.2 942.259 1170.76C933.487 1150.3 929.702 1139.42 925.836 1123.54C918.787 1094.6 916.237 1070.75 913.317 1006.46C909.888 930.977 907.28 913.69 889.595 849.216C873.919 792.066 869.855 771.214 869.134 744.213C868.6 724.197 870.843 707.878 876.383 691.481C880.105 680.469 886.899 666.876 892.013 660.21C892.235 659.921 893.379 658.385 894.555 656.797C898.166 651.922 906.063 643.434 910.793 639.343C912.043 638.261 913.754 636.769 914.595 636.025C916.01 634.774 924.528 628.5 926.838 627.007C939.563 618.782 955.082 610.85 979.322 600.179C1007.13 587.937 1007.8 587.609 1033.09 573.863C1042.06 568.986 1059.51 560.368 1061.4 559.88C1062.09 559.701 1062.65 559.442 1062.65 559.302C1062.65 558.877 1060.39 557.079 1059.85 557.074C1059.57 557.071 1056.01 558.669 1051.95 560.624ZM1489.96 653.511L1488.89 654.885L1493.96 665.685C1507.47 694.486 1523.21 731.719 1528.92 748.413C1529.51 750.145 1530.71 753.571 1531.58 756.026C1537.82 773.626 1544.92 798.092 1547.87 812.202C1549.4 819.533 1551.31 829.482 1551.65 831.912C1551.82 833.078 1552.06 834.614 1552.19 835.324C1552.33 836.035 1552.78 839.215 1553.2 842.391C1556.82 869.798 1556.54 896.19 1552.4 919.044C1548.3 941.691 1541.29 960.035 1531.18 974.568C1524.57 984.066 1512.72 995.272 1501.91 1002.25C1488.16 1011.11 1474.78 1016.85 1438.89 1029.26C1413.17 1038.16 1402.91 1042.14 1392 1047.45C1346.96 1069.4 1324.24 1102.58 1312.42 1163.7C1308.71 1182.91 1306.47 1200.91 1303.26 1237.47L1301.39 1258.73L1302.89 1258.9C1303.71 1258.99 1304.53 1258.82 1304.71 1258.52C1304.89 1258.22 1305.68 1250.35 1306.47 1241.03C1312.45 1170.04 1319.21 1136.86 1333.67 1107.57C1336.84 1101.13 1343.3 1090.6 1346.25 1087.05C1346.97 1086.18 1348.4 1084.41 1349.43 1083.11C1354.16 1077.13 1365.3 1066.97 1372.32 1062.24C1379.2 1057.61 1381.8 1056 1386.8 1053.28C1390.02 1051.54 1394.61 1049.24 1396.99 1048.19C1399.38 1047.14 1402.05 1045.94 1402.93 1045.53C1407.89 1043.23 1419.33 1039.02 1441.59 1031.33C1469.96 1021.52 1477.27 1018.65 1489.5 1012.5C1500.28 1007.08 1510.46 1000.5 1517.24 994.563C1520.24 991.935 1528.17 983.66 1530.25 980.973C1531.37 979.541 1532.41 978.252 1532.58 978.108C1533.44 977.369 1540.07 966.556 1542.04 962.679C1550.29 946.42 1555.8 925.767 1558.36 901.455C1559.52 890.503 1559.51 868.214 1558.34 856.041C1553.58 806.261 1537.77 754.226 1505.93 683.573C1499.88 670.152 1491.41 652.061 1491.19 652.105C1491.1 652.123 1490.55 652.756 1489.96 653.511ZM1152.1 659.78C1145.35 660.381 1134.25 662.391 1126.68 664.38C1109.73 668.839 1098.23 673.644 1072.97 686.814C1062.34 692.361 1047.66 699.502 1039.59 703.051C1015.47 713.665 1004.54 719.565 994.402 727.428C971.612 745.114 959.681 770.871 959.706 802.338C959.711 809.073 960.678 820.826 961.724 826.868C962.002 828.475 962.365 830.736 962.53 831.891C963.416 838.113 970.561 866.623 975.489 883.605C979.251 896.567 984.715 920.671 985.903 929.544C987.847 944.057 988.94 958.373 990.272 986.771C991.956 1022.65 993.758 1042.43 996.655 1056.82C999.976 1073.3 1003.7 1084.58 1012.29 1104.11C1019.67 1120.89 1032.26 1144.31 1038.68 1153.2C1039.73 1154.65 1042.18 1158.07 1044.14 1160.81C1050.16 1169.25 1054.45 1174.37 1062.16 1182.32C1070.32 1190.73 1070.79 1191.16 1077.27 1196.12C1094.81 1209.57 1117.66 1219.04 1140.89 1222.49C1142.01 1222.66 1147.28 1222.93 1152.61 1223.1C1164.58 1223.48 1171.63 1222.71 1181.58 1219.91C1186.79 1218.45 1193.33 1215.86 1198.19 1213.33C1201.45 1211.64 1211.57 1204.77 1213.37 1203.04C1217.68 1198.87 1222.86 1193.51 1223.82 1192.21C1224.46 1191.35 1225.24 1190.36 1225.55 1190.01C1226.78 1188.64 1231 1180.67 1232.91 1176.1C1239.1 1161.31 1241.72 1146.41 1245.38 1105.28C1248.73 1067.61 1251.39 1052.91 1257.55 1037.81C1259.61 1032.78 1263.67 1025.12 1265.11 1023.55C1265.46 1023.17 1266.21 1022.17 1266.77 1021.35C1269.21 1017.73 1280.62 1006.98 1282.02 1006.98C1282.15 1006.98 1283.25 1006.3 1284.46 1005.47C1286.9 1003.78 1296.09 999.119 1299.65 997.767C1300.91 997.287 1308.82 994.465 1317.23 991.496C1335.02 985.215 1338.85 983.685 1345.77 980.102C1359.08 973.213 1367.5 964.958 1373.5 952.907C1384.54 930.743 1385.79 900.019 1377.08 865.265C1371.4 842.625 1363.74 822.614 1347.19 787.133C1340.57 772.947 1340.21 772.301 1338.85 772.301C1338.06 772.301 1337.29 772.526 1337.12 772.801C1336.96 773.077 1338.46 776.68 1340.47 780.808C1345.07 790.255 1351.71 804.786 1355.18 812.99C1356.65 816.455 1358.31 820.353 1358.88 821.653C1365.93 837.716 1375.05 867.71 1376.84 880.738C1377 881.905 1377.25 883.441 1377.39 884.151C1379.5 894.842 1379.66 917.75 1377.69 928.529C1374.17 947.767 1367.64 960.396 1356.39 969.708C1348.03 976.632 1339.95 980.506 1317.73 988.244C1298.74 994.86 1295.65 996.105 1287.4 1000.47C1269.91 1009.74 1258.75 1023.2 1252.03 1043.17C1247.07 1057.88 1244.78 1071.86 1241.81 1105.42C1238.93 1137.95 1237.5 1148.5 1234.15 1161.69C1230.04 1177.88 1224.83 1187.55 1214.96 1197.29C1198.3 1213.73 1177.38 1221.45 1152.1 1220.49C1130.88 1219.68 1107.21 1212.33 1088.9 1200.85C1063.69 1185.03 1040.19 1155.27 1020.61 1114.35C1002.06 1075.57 997.281 1054.8 994.624 1001.47C991.04 929.507 990.434 925.201 976.983 876.066C966.707 838.534 964.034 824.734 963.44 806.165C962.998 792.372 964.318 781.886 967.932 770.476C970.179 763.383 975.402 752.585 978.566 748.496C978.825 748.161 980.115 746.47 981.433 744.738C983.853 741.558 989.67 735.474 992.875 732.772C993.831 731.966 995.186 730.811 995.887 730.204C998.079 728.308 1006.63 722.664 1011.62 719.823C1017.2 716.645 1026.45 712.191 1036.15 708.007C1039.93 706.375 1043.49 704.83 1044.05 704.574C1059.23 697.642 1061.72 696.419 1070.81 691.428C1079.37 686.728 1085.99 683.355 1095.27 678.976C1111.84 671.155 1133.48 664.891 1149.3 663.338C1151.12 663.159 1153.41 662.93 1154.39 662.83C1155.37 662.729 1156.94 662.63 1157.87 662.61L1159.56 662.572L1158.47 660.997C1157.33 659.352 1157.2 659.326 1152.1 659.78ZM1426.84 725.012C1425.73 726.277 1425.8 726.499 1430.11 735.796C1431.99 739.848 1434.85 746.234 1436.46 749.988C1438.07 753.742 1439.91 757.994 1440.55 759.438C1441.18 760.882 1443.02 765.371 1444.62 769.413C1446.22 773.456 1447.73 777.236 1447.96 777.814C1457.42 801.017 1467 833.968 1470.1 853.941C1470.23 854.808 1470.46 856.225 1470.6 857.091C1472.91 871.091 1473.62 881.735 1473.3 897.37C1473.1 907.12 1472.74 912.595 1471.93 917.994C1466.59 953.927 1453.8 975.592 1428.94 990.84C1418.47 997.263 1408.86 1001.29 1381.96 1010.53C1371.87 1014 1360.86 1017.95 1357.49 1019.31C1305.07 1040.51 1285.61 1072.18 1276.99 1150.31C1276.56 1154.21 1275.17 1169.21 1273.91 1183.65C1270.67 1220.57 1268.51 1237.83 1265.22 1252.89C1264.53 1256.04 1263.97 1258.69 1263.97 1258.8C1263.97 1258.91 1264.74 1258.99 1265.68 1258.99H1267.4L1268.99 1251.25C1272.47 1234.38 1274.2 1220.45 1277.48 1183.13C1282.16 1129.91 1285.09 1111.55 1292.51 1089.15C1295.92 1078.85 1303.59 1063.59 1308.22 1057.91C1308.81 1057.19 1309.93 1055.79 1310.71 1054.79C1312.55 1052.47 1319.84 1044.95 1322.11 1043.06C1323.07 1042.25 1324.43 1041.1 1325.13 1040.5C1332.8 1033.96 1347.14 1026.34 1363.61 1020.07C1371.37 1017.12 1376.48 1015.3 1381.96 1013.55C1406.45 1005.73 1424.86 997.617 1436.32 989.6C1458.2 974.296 1470.38 951.9 1475.57 917.468C1476.9 908.629 1477.4 887.302 1476.53 876.632C1473.95 844.905 1464.79 810.094 1448.26 769.232C1441.15 751.644 1428.82 723.999 1428.08 723.999C1427.89 723.999 1427.33 724.455 1426.84 725.012ZM1159.23 767.92C1142.54 769.965 1130.02 774.198 1111.16 784.167C1105.46 787.18 1095.71 791.905 1089.5 794.669C1072.76 802.113 1066.75 805.494 1059.39 811.623C1050.73 818.837 1044.12 830.164 1041.44 842.391C1040.14 848.289 1040.17 867.657 1041.48 871.619C1041.6 872.003 1041.81 873.026 1041.94 873.892C1042.57 878.206 1045.22 888.947 1049.24 903.556C1050.66 908.697 1054.02 922.128 1054.51 924.556C1054.76 925.856 1055.1 927.509 1055.24 928.231C1055.76 930.737 1056.48 935.333 1056.77 937.944C1056.92 939.388 1057.16 941.396 1057.3 942.407C1057.72 945.571 1058.53 958.474 1059.08 970.495C1059.93 989.405 1061.33 1004.55 1062.92 1012.23C1063.07 1012.96 1063.42 1014.73 1063.7 1016.17C1064.3 1019.27 1068.26 1031.61 1069.82 1035.19C1073.64 1044 1078.71 1054.36 1081.95 1060.01C1084.02 1063.62 1086.12 1067.31 1086.63 1068.22C1087.13 1069.12 1088.31 1070.92 1089.24 1072.21C1090.17 1073.5 1091.28 1075.09 1091.7 1075.75C1092.12 1076.4 1092.7 1077.21 1092.98 1077.53C1093.26 1077.86 1094.14 1078.95 1094.93 1079.96C1100.47 1087.02 1104.26 1091.02 1110.05 1095.9C1112.15 1097.67 1113.99 1099.26 1114.13 1099.44C1114.88 1100.36 1123.85 1105.48 1127.76 1107.23C1141 1113.15 1152.37 1115.53 1164.81 1114.99C1175.66 1114.52 1184.63 1111.62 1193.04 1105.85C1203.81 1098.47 1209.51 1089.98 1212.96 1076.21C1214.91 1068.42 1215.79 1062.13 1217.35 1044.95C1219.9 1016.74 1222.07 1005.93 1227.07 996.545C1228.8 993.286 1233.72 986.518 1234.37 986.5C1234.53 986.495 1235.4 985.846 1236.29 985.056C1237.19 984.267 1238.45 983.192 1239.1 982.668C1241.94 980.366 1251.37 976.212 1262.57 972.331C1280.92 965.974 1287.52 962.014 1293.49 953.779C1299.28 945.804 1302.25 934.545 1302.24 920.687C1302.23 900.517 1296.07 879.698 1280.31 846.591C1273.55 832.379 1268.68 824.454 1261.22 815.525C1253.08 805.77 1243.36 797.335 1228.8 787.39C1211.59 775.631 1196.52 769.904 1178.09 768.12C1172.83 767.61 1162.65 767.502 1159.23 767.92ZM1159.42 770.951C1159.32 771.045 1157.97 771.265 1156.43 771.441C1142.95 772.974 1130.06 777.542 1111.84 787.244C1104.02 791.408 1094.53 795.904 1085.08 799.932C1083.82 800.469 1079.83 802.424 1076.23 804.276C1059.09 813.077 1049.74 824.039 1045.48 840.328C1044.22 845.126 1044.11 846.356 1044.1 855.779C1044.08 869.615 1045.35 876.703 1052.46 902.243C1060.07 929.596 1061.24 937.879 1062.92 976.008C1063.64 992.358 1065.48 1008.8 1067.54 1017.22C1071.43 1033.16 1082.7 1057.2 1093.62 1072.85C1109.02 1094.94 1125.32 1106.28 1148.5 1111.06C1156.41 1112.68 1168 1112.67 1174.44 1111.03C1188.94 1107.34 1199.87 1099.08 1205.48 1087.57C1209.63 1079.08 1211.67 1068.66 1213.77 1045.31C1215.86 1021.98 1217.09 1014.19 1220.15 1004.77C1224.53 991.288 1231.94 982.527 1244.14 976.401C1246.78 975.077 1254.39 972.082 1261.06 969.746C1267.73 967.41 1274.95 964.582 1277.11 963.461C1288.03 957.8 1293.71 950.455 1296.93 937.841C1298.02 933.565 1298.28 931.132 1298.5 923.461C1298.73 915.06 1298.57 912.553 1297.3 903.865C1296.99 901.8 1295.35 894.827 1293.86 889.284C1292.91 885.76 1288.72 873.743 1287.39 870.742C1286.88 869.587 1285.87 867.16 1285.14 865.349C1284.42 863.538 1282.65 859.522 1281.22 856.424C1279.79 853.326 1277.61 848.568 1276.38 845.851C1274.52 841.735 1271.62 836.281 1268.41 830.841C1267.43 829.181 1264.29 824.567 1263.94 824.278C1263.77 824.133 1263.42 823.625 1263.16 823.148C1261.73 820.479 1249.84 807.668 1245.21 803.802C1244 802.792 1242.28 801.315 1241.38 800.521C1240.49 799.726 1238.84 798.428 1237.72 797.635C1236.6 796.841 1235.57 796.054 1235.43 795.885C1234.85 795.192 1226.65 789.513 1221.41 786.184C1208.19 777.774 1195.1 773.201 1178.74 771.278C1175.18 770.86 1159.8 770.599 1159.42 770.951ZM671.994 1021.47C647.829 1025.33 622.251 1041.17 589.522 1072.53C574.256 1087.16 566.398 1097.77 557.049 1116.36C549.226 1131.92 543.015 1148.03 531.416 1182.86C527.906 1193.4 523.385 1206.75 521.369 1212.53C515.318 1229.86 512.987 1237.16 506.798 1258.11C506.564 1258.9 506.761 1259.04 507.924 1258.9C509.065 1258.76 509.454 1258.33 509.974 1256.63C510.327 1255.47 511.928 1250.16 513.532 1244.82C515.136 1239.48 518.272 1229.79 520.501 1223.29C522.73 1216.79 527.06 1204.04 530.124 1194.94C545 1150.77 548.782 1140.4 554.676 1127.61C557.713 1121.02 562.1 1112.13 563.164 1110.41C563.432 1109.98 564.901 1107.5 566.427 1104.9C569.236 1100.12 574.753 1092.22 577.323 1089.3C579.894 1086.38 589.923 1076.07 593.55 1072.61C599.585 1066.86 606.941 1060.26 608.738 1058.98C609.331 1058.56 610.044 1057.95 610.325 1057.62C610.605 1057.29 611.752 1056.33 612.872 1055.5C613.994 1054.66 615.35 1053.56 615.888 1053.07C616.425 1052.57 617.801 1051.5 618.946 1050.7C620.091 1049.9 621.308 1048.98 621.651 1048.64C621.994 1048.31 623.141 1047.5 624.199 1046.83C625.258 1046.17 626.239 1045.47 626.379 1045.27C626.519 1045.07 627.345 1044.46 628.214 1043.93C629.083 1043.39 632.18 1041.45 635.095 1039.63C646.015 1032.79 658.983 1027.29 668.172 1025.61C674.196 1024.5 676.22 1024.32 682.187 1024.33C689.962 1024.35 694.682 1025.12 701.312 1027.46C711.555 1031.07 717.489 1035.13 727.165 1045.14C731.16 1049.27 734.428 1052.85 734.428 1053.1C734.428 1053.35 734.912 1054.12 735.504 1054.81C736.443 1055.91 742.444 1064.98 743.857 1067.43C750.594 1079.13 755.631 1089.87 761.913 1105.95C762.139 1106.53 762.577 1107.59 762.887 1108.31C767.128 1118.19 786.389 1176.65 789.695 1189.69C791.421 1196.5 793.64 1207.05 794.281 1211.5C794.448 1212.67 794.697 1214.2 794.831 1214.91C794.966 1215.62 795.217 1217.27 795.389 1218.57C795.56 1219.87 795.782 1221.37 795.882 1221.91C795.98 1222.45 796.211 1224.22 796.393 1225.85C796.575 1227.47 796.803 1229.24 796.9 1229.77C797.251 1231.7 798.422 1244.02 798.903 1250.85C799.429 1258.34 799.598 1258.99 800.984 1258.99C802.092 1258.99 802.213 1258.77 802.209 1256.76C802.196 1251.53 800.327 1232.78 798.585 1220.4C795.71 1199.98 792.636 1187.73 782.64 1156.88C765.763 1104.78 757.052 1083.27 744.479 1062.64C725.189 1030.98 700.446 1016.92 671.994 1021.47ZM677.175 1069.48C661.628 1072 645.91 1080.77 626.889 1097.52C619.694 1103.85 610.611 1113 606.986 1117.55C598.27 1128.49 590.05 1145.31 581.851 1168.95C567.311 1210.89 556.185 1246.4 554.237 1257.1C553.915 1258.87 553.975 1258.99 555.204 1258.99C556.649 1258.99 556.411 1259.6 558.797 1249.8C560.979 1240.84 565.492 1225.6 569.209 1214.63C571.165 1208.85 575.51 1195.98 578.864 1186.02C585.889 1165.15 589.692 1154.8 593.61 1145.88C599.611 1132.21 606.434 1121.48 614.151 1113.56C618.74 1108.86 627.142 1100.98 630.665 1098.07C631.717 1097.21 633.304 1095.85 634.193 1095.06C635.081 1094.26 636.725 1092.96 637.847 1092.17C638.968 1091.37 640.33 1090.31 640.873 1089.81C641.417 1089.3 642.031 1088.89 642.238 1088.89C642.446 1088.89 642.919 1088.58 643.289 1088.2C643.659 1087.82 645.237 1086.69 646.795 1085.7C648.354 1084.71 650.074 1083.61 650.618 1083.25C653.49 1081.35 661.841 1077.26 665.725 1075.85C672.63 1073.34 677.158 1072.62 684.736 1072.85C694.745 1073.15 701.875 1075.75 709.505 1081.87C711.499 1083.47 720.667 1093.11 720.667 1093.6C720.667 1093.86 721.005 1094.41 721.418 1094.84C724.84 1098.36 734.224 1116.48 738.866 1128.53C743.758 1141.22 745.005 1144.76 750.969 1162.91C758.14 1184.74 760.422 1193.42 762.692 1207.54C762.854 1208.55 763.091 1209.97 763.219 1210.69C763.347 1211.41 763.598 1213.42 763.778 1215.15C763.958 1216.89 764.193 1218.78 764.299 1219.35C764.691 1221.48 765.976 1238.46 766.266 1245.34C766.43 1249.24 766.691 1253.91 766.846 1255.71C767.112 1258.81 767.2 1258.99 768.441 1258.99H769.755L769.411 1250C768.482 1225.67 766.097 1206.25 761.907 1188.9C760.207 1181.87 750.371 1151.27 745.317 1137.29C737.013 1114.32 728.869 1098.54 719.494 1087.26C712.787 1079.18 703.236 1072.79 694.419 1070.48C689.729 1069.25 681.507 1068.77 677.175 1069.48ZM0 1106.74C0 1109.21 1.20893 1112.44 2.55241 1113.56C2.72467 1113.71 4.80105 1116.78 7.16641 1120.39C9.53228 1124 11.5959 1127.07 11.7534 1127.21C11.9109 1127.36 13.287 1129.36 14.8114 1131.66C16.3358 1133.96 17.9851 1136.31 18.4754 1136.88C18.9662 1137.45 19.3673 1138.09 19.3673 1138.3C19.3673 1138.51 19.6619 1139 20.0227 1139.38C20.3831 1139.76 21.4722 1141.25 22.4436 1142.68C23.4145 1144.11 24.4899 1145.64 24.8335 1146.09C25.1765 1146.54 26.7182 1148.67 28.2594 1150.84C29.8001 1153 31.2481 1155.01 31.4764 1155.3C31.7053 1155.59 34.0625 1158.77 36.7148 1162.38C39.3676 1165.98 41.9541 1169.4 42.4628 1169.99C42.9714 1170.57 44.3475 1172.35 45.5208 1173.94C46.694 1175.52 48.0783 1177.3 48.5976 1177.88C49.117 1178.45 50.1491 1179.75 50.8911 1180.75C51.6332 1181.75 52.5847 1182.93 53.0052 1183.38C53.4257 1183.83 54.6871 1185.35 55.8084 1186.77C56.9296 1188.2 58.3057 1189.86 58.8664 1190.48C59.427 1191.1 60.7781 1192.65 61.8693 1193.93C71.1029 1204.75 85.9887 1220.12 94.3411 1227.47C96.1341 1229.05 98.0597 1230.75 98.6203 1231.26C105.721 1237.65 118.29 1246.92 128.436 1253.24C136.292 1258.13 138.219 1258.99 141.278 1258.99H143.931L136.165 1254.54C123.663 1247.38 112.735 1239.54 99.6396 1228.32C91.831 1221.63 71.4546 1200.67 62.9075 1190.54C46.3317 1170.9 27.9027 1145.83 6.95796 1114.42L0 1103.98V1106.74ZM662.82 1161.12C657.999 1162.3 648.167 1167.63 642.005 1172.41C633.955 1178.65 624.429 1188.34 620.707 1194.08C615.245 1202.49 612.791 1208.22 605.612 1229.33C600.962 1243 595.799 1258.53 595.799 1258.84C595.799 1258.92 596.43 1258.99 597.201 1258.98C598.543 1258.97 598.691 1258.68 600.717 1252.28C603.639 1243.05 612.161 1218.12 614.082 1213.19C616.336 1207.39 620 1199.99 622.691 1195.8C626.05 1190.57 635.511 1180.99 642.734 1175.51C648.955 1170.78 648.401 1171.13 655.175 1167.71C665.364 1162.55 672.815 1162.17 681.289 1166.37C687.787 1169.59 694.3 1177.32 699.384 1187.85C704.147 1197.72 714.694 1228.43 716.331 1237.2C717.486 1243.39 718.082 1247.18 718.395 1250.35C718.594 1252.36 718.825 1254.36 718.908 1254.79C718.992 1255.23 719.078 1256.35 719.099 1257.29C719.134 1258.82 719.29 1258.99 720.667 1258.99C722.461 1258.99 722.412 1259.49 721.43 1251.1C719.822 1237.37 716.032 1223.3 707.909 1200.92C697.716 1172.82 686.023 1160.18 670.375 1160.33C667.902 1160.36 664.502 1160.71 662.82 1161.12Z" fill="white" fill-opacity="0.2"/>
</svg>
