<svg width="100" height="33" viewBox="0 0 100 33" fill="none" xmlns="http://www.w3.org/2000/svg">
<path d="M8.67338 10.1964C6.5095 10.7774 4.85948 11.7195 3.28162 13.2749C0.981169 15.5427 -0.123533 18.3287 0.0109537 21.5233C0.097747 23.5853 0.663368 25.3174 1.81057 27.0337C2.87372 28.6244 4.60297 30.1553 6.3056 31.0132C7.14378 31.4355 8.7325 31.9341 9.79253 32.1077C11.1112 32.3235 13.4609 32.2551 14.6233 31.967C18.6657 30.9651 21.7264 28.2701 23.0601 24.5382C23.5003 23.3065 23.7712 21.2621 23.6206 20.3081L23.5466 19.8386L23.2762 20.6384C22.6591 22.4633 21.7375 23.9259 20.2989 25.3635C17.8831 27.7774 14.976 28.9657 11.8451 28.8188C10.4525 28.7535 9.49447 28.5168 8.32678 27.9492C6.00149 26.8189 4.36894 24.7073 3.80342 22.0987C3.581 21.0723 3.5793 19.1517 3.80002 18.1072C4.45139 15.0242 6.35773 12.2186 8.98098 10.4823C9.87687 9.88925 9.86356 9.87689 8.67338 10.1964Z" fill="#00AFEF"/>
<path fill-rule="evenodd" clip-rule="evenodd" d="M33.1342 1.16089C32.3601 1.25894 31.7139 1.39833 30.9384 1.63426L30.112 1.88567V8.28814V14.6905H31.4342H32.7564V9.26838V3.84634L33.0975 3.78235C33.7208 3.66552 35.0315 3.795 35.5697 4.02668C36.3838 4.37699 37.004 5.22483 37.0058 5.99009C37.0079 6.82386 36.4432 7.67651 35.6422 8.04919C35.243 8.23491 35.012 8.27153 34.2338 8.27228C33.5261 8.27304 33.3147 8.30154 33.352 8.39119C33.3789 8.45612 34.1656 9.88935 35.1 11.5762L36.799 14.6433L38.1888 14.6695C39.4641 14.6935 39.5734 14.6825 39.5169 14.5353C39.483 14.4469 38.9468 13.4686 38.3253 12.3609C37.7037 11.2533 37.1952 10.3143 37.1952 10.2742C37.1952 10.2342 37.3164 10.1298 37.4645 10.0424C38.207 9.60415 39.0353 8.50312 39.3713 7.50759C39.5424 7.00062 39.5695 6.73865 39.5418 5.85929C39.5099 4.85206 39.4944 4.78468 39.1146 4.01904C38.5836 2.94839 37.8851 2.24721 36.8699 1.7661C36.4515 1.56782 35.9153 1.35973 35.6786 1.30368C35.1838 1.18647 33.6229 1.09889 33.1342 1.16089ZM62.081 1.35133C61.9771 1.37313 61.5203 1.47911 61.0658 1.58688L60.2394 1.78271V7.93858V14.0946L61.0658 14.3435C62.1559 14.672 62.9187 14.7837 64.0643 14.7825C65.8598 14.7807 67.0708 14.3476 68.1657 13.3155C70.9715 10.6707 69.6055 6.0033 65.7881 5.19208C65.0908 5.04392 63.9206 5.06798 63.1435 5.24644L62.7894 5.32779V3.30879V1.28971L62.5296 1.30066C62.3867 1.30669 62.1849 1.32944 62.081 1.35133ZM71.4949 1.44854C70.8144 1.78356 70.5059 2.76767 70.8642 3.46007C71.0547 3.82822 71.5438 4.18523 71.9643 4.26318C72.4231 4.34821 73.0744 4.05933 73.3757 3.6373C73.6814 3.20895 73.6965 2.37319 73.4055 1.98079C72.9195 1.32538 72.1694 1.11644 71.4949 1.44854ZM76.3892 1.4357C75.9996 1.50667 75.5109 1.62388 75.3031 1.69626L74.9253 1.82791V6.53688C74.9253 11.2393 74.9256 11.2467 75.1437 11.7862C75.7728 13.3423 77.1547 14.4151 78.8211 14.6411L79.3169 14.7083V13.4317C79.3169 13.3388 79.3171 13.2526 79.3173 13.1726V13.1699C79.3189 12.5133 79.3195 12.2726 79.1996 12.1592C79.1303 12.0935 79.0207 12.0704 78.8477 12.0339C78.8109 12.0262 78.7712 12.0178 78.7284 12.0083C78.4124 11.9382 77.8446 11.453 77.6594 11.095C77.5452 10.8744 77.5225 10.0413 77.5225 6.06021V1.28971L77.31 1.2982C77.1932 1.30283 76.7788 1.36473 76.3892 1.4357ZM81.3391 1.46817C80.1722 2.17916 80.3594 3.8604 81.6439 4.20608C82.1801 4.35028 82.5592 4.24987 83.0199 3.84133C83.3942 3.50924 83.4159 3.46083 83.4484 2.8861C83.4758 2.40188 83.4446 2.21993 83.2924 1.97768C82.9062 1.36313 81.9296 1.10833 81.3391 1.46817ZM86.1075 3.32644C85.7648 3.40005 85.3185 3.51764 85.1158 3.58776L84.7474 3.71516V9.17929V14.6433L86.046 14.6696L87.3446 14.6958V11.2136V7.73134L88.0765 7.67349C88.4791 7.64169 89.0779 7.65009 89.4072 7.69218C89.4642 7.69947 89.5159 7.70702 89.563 7.7139C89.7371 7.73934 89.8484 7.75561 89.9327 7.71532C90.0821 7.64385 90.1465 7.39445 90.3251 6.70269L90.3252 6.70256L90.3256 6.70078C90.3527 6.59579 90.3825 6.48062 90.4155 6.35436C90.6371 5.50823 90.6608 5.31825 90.5532 5.25182C90.3557 5.12989 89.1964 5.04458 88.218 5.08006L87.3441 5.11177L87.3444 4.14446L87.3446 3.17715L87.0377 3.18488C86.8688 3.18904 86.4502 3.25274 86.1075 3.32644ZM43.8691 5.16339C43.2198 5.2723 42.0984 5.83041 41.5923 6.29642C40.3336 7.45578 39.7364 9.22818 40.0687 10.8184C40.2759 11.8102 40.6338 12.4615 41.398 13.2368C42.1472 13.997 42.9309 14.4263 43.9719 14.6467C44.7428 14.8099 46.3159 14.8245 47.2116 14.6766C47.7476 14.5882 47.8673 14.5366 47.8673 14.3939C47.8673 14.2057 47.4212 12.0427 47.3724 11.9938C47.3561 11.9776 47.1527 12.0096 46.9203 12.0648C46.2453 12.2254 44.8714 12.2 44.2533 12.0156C43.85 11.8953 43.5927 11.7377 43.2616 11.408L42.8146 10.9628L45.7896 10.9156L48.7645 10.8685L48.9311 10.3966C49.0538 10.0492 49.0898 9.70919 49.0677 9.10738C49.0413 8.38666 48.9961 8.20594 48.6853 7.57752C47.777 5.74123 45.9334 4.81714 43.8691 5.16339ZM53.3686 5.20152C51.3305 5.66526 49.7711 7.30573 49.4611 9.31254C49.1308 11.4504 50.5231 13.6814 52.6839 14.477C53.3121 14.7082 53.5151 14.7369 54.4784 14.7302C55.0757 14.726 55.7344 14.6733 55.9422 14.6131C56.1848 14.5429 56.3312 14.5372 56.3515 14.5971C56.3702 14.6525 56.8985 14.6905 57.65 14.6905H58.9172V10.2563V5.82211L58.563 5.67319C57.3376 5.15782 54.6382 4.91274 53.3686 5.20152ZM72.0964 5.31495C71.7351 5.39234 71.2991 5.51427 71.1274 5.58599L70.8151 5.71632L70.8397 10.1798L70.8643 14.6433L72.1628 14.6696L73.4614 14.6958V9.92738V5.15896L73.1073 5.16669C72.9125 5.17085 72.4576 5.23766 72.0964 5.31495ZM82.3863 5.21983C82.2824 5.24125 81.8681 5.34836 81.4655 5.45792L80.7336 5.65705V10.1738V14.6905H82.0086H83.2835V9.92474V5.15896L82.9294 5.1699C82.7346 5.17594 82.4902 5.1984 82.3863 5.21983ZM93.0112 5.30146C92.6736 5.37016 92.2273 5.48312 92.0195 5.55249L91.6418 5.67876L91.6165 8.06316C91.5883 10.7288 91.6555 11.2357 92.1724 12.2589C92.9841 13.8657 95.0012 14.9302 96.907 14.7576L97.45 14.7084L97.4491 15.0062C97.4477 15.4557 97.0471 16.224 96.6389 16.5603C96.0671 17.0312 95.552 17.1568 94.27 17.1379L93.1529 17.1213V18.4304V19.7394L94.2069 19.766C96.5032 19.824 98.199 19.0636 99.2368 17.5106L99.2521 17.4877L99.2523 17.4874C99.4047 17.2595 99.526 17.078 99.6226 16.8842C100 16.1268 100 15.1813 100 10.5426V10.5424V10.4229V5.13725L99.4569 5.20114C99.1583 5.23625 98.5846 5.35195 98.182 5.45821L97.45 5.65148V8.83974C97.45 9.12367 97.4505 9.38336 97.451 9.62089V9.62589C97.4544 11.4301 97.4554 11.9523 97.2224 12.0967C97.1274 12.1555 96.9937 12.1516 96.8055 12.1462C96.7444 12.1444 96.6774 12.1425 96.6042 12.1425C95.5847 12.1425 94.7966 11.6832 94.4184 10.8685C94.2609 10.5292 94.2429 10.2208 94.241 7.82496L94.239 5.15896L93.932 5.16783C93.7632 5.17273 93.3488 5.23285 93.0112 5.30146ZM45.6007 7.88649C45.9335 8.05485 46.3562 8.56946 46.3562 8.80624C46.3562 8.90882 46.0137 8.93383 44.6057 8.93383H42.8552L42.9648 8.72149C43.456 7.76956 44.6327 7.3968 45.6007 7.88649ZM56.2955 7.76824C56.3349 7.79259 56.3672 8.68205 56.3672 9.74496V11.6773L55.9186 11.88C55.326 12.1478 53.7393 12.183 53.2978 11.9383C52.92 11.7288 52.4224 11.2306 52.2352 10.8742C52.0021 10.4303 52.0276 9.45071 52.2847 8.9629C52.6149 8.33665 53.3396 7.86715 54.2142 7.71285C54.6809 7.63046 56.1352 7.66915 56.2955 7.76824ZM65.597 7.85148C66.1741 8.09241 66.5758 8.46207 66.8125 8.96997C67.3912 10.2121 66.7815 11.5458 65.423 12.0091C64.9039 12.1863 63.1391 12.2529 62.8988 12.1045C62.8217 12.0569 62.7894 11.4736 62.7894 10.1283V8.21953L63.0626 8.05825C63.6579 7.7069 64.9904 7.59818 65.597 7.85148ZM43.2396 17.4321C42.6057 17.542 41.5078 18.067 40.9562 18.524C40.0024 19.3142 39.1818 20.6298 38.7819 22.0097C38.5932 22.6607 38.5652 22.9641 38.5687 24.3164C38.5727 25.8104 38.5851 25.91 38.8734 26.7701C39.5794 28.8758 40.8752 30.2848 42.6675 30.8954C43.1722 31.0673 43.4966 31.1065 44.4202 31.1074C45.0934 31.108 45.8027 31.0511 46.1674 30.9673C46.7793 30.8266 47.8673 30.4589 47.8673 30.3929C47.8673 30.3737 47.5854 29.7928 47.2408 29.1019L46.6143 27.8458L46.1311 28.0096C45.4468 28.2416 44.4116 28.321 43.7806 28.1901C42.8103 27.9888 42.0663 27.2061 41.6239 25.9208C41.3221 25.044 41.3218 23.3975 41.6232 22.534C41.9044 21.729 42.3924 20.9866 42.8658 20.6439C43.5864 20.1223 44.8129 20.0482 46.1002 20.4484L46.647 20.6185L47.2571 19.4017C47.5928 18.7325 47.8673 18.1637 47.8673 18.1377C47.8673 18.0527 47.1867 17.8038 46.4169 17.6075C45.5493 17.3861 43.9986 17.3005 43.2396 17.4321ZM71.0531 19.515C70.7415 19.5604 70.2102 19.6758 69.8726 19.7714L69.2587 19.9453L69.2344 25.4339L69.21 30.9225H70.4857H71.7615V27.4822V24.0419L72.1042 23.9777C72.2927 23.9423 72.9092 23.9353 73.4743 23.9621L74.5016 24.0107L74.6364 23.5266C74.9844 22.2767 75.165 21.5517 75.1355 21.5224C75.0332 21.4201 73.1114 21.2883 72.4934 21.3413L71.7615 21.4038V20.4065C71.7615 19.8579 71.7296 19.4144 71.6906 19.4207C71.6516 19.4271 71.3648 19.4696 71.0531 19.515ZM61.2035 21.3911C60.4409 21.4984 59.1604 21.8298 58.8108 22.0105L58.5394 22.1507V26.5366V30.9225H59.8616H61.1838V27.4822V24.0419L61.5242 23.978C61.7114 23.943 62.2618 23.935 62.7472 23.9604C63.7804 24.0144 64.4983 24.3038 64.9463 24.8468C65.3925 25.3878 65.4338 25.6892 65.4338 28.409V30.9225H66.7633H68.0927L68.0585 28.0677C68.0257 25.3346 68.0147 25.1888 67.8017 24.6468C67.1824 23.071 65.9578 21.981 64.2962 21.5262C63.6589 21.3517 61.9991 21.2792 61.2035 21.3911ZM88.0529 21.4474C87.5854 21.5202 86.8842 21.6771 86.4946 21.7961L85.7863 22.0124L85.7617 26.4674L85.7372 30.9225H87.0131H88.289V27.4822V24.0419L88.6318 23.9777C88.8203 23.9423 89.437 23.9353 90.0022 23.9621L91.03 24.0108L91.0877 23.7625C91.1194 23.626 91.262 23.078 91.4045 22.5447C91.5469 22.0114 91.6281 21.5531 91.5847 21.5264C91.4561 21.447 89.9838 21.2973 89.4224 21.3066C89.1367 21.3113 88.5204 21.3746 88.0529 21.4474ZM51.907 21.6189C48.5588 22.7998 47.5723 27.045 50.0669 29.5378C51.0472 30.5173 52.2235 30.9821 53.9589 31.0755C54.8291 31.1223 56.3723 30.9489 56.5353 30.7859C56.5867 30.7346 56.1243 28.3834 56.0478 28.307C56.0279 28.2871 55.7237 28.3207 55.3719 28.382C54.5126 28.5316 53.2281 28.4469 52.6717 28.2042C52.2444 28.0177 51.5506 27.4203 51.5506 27.2389C51.5506 27.1821 52.671 27.1476 54.5182 27.1476H57.4859L57.6112 26.7937C57.6839 26.5885 57.7361 26.0432 57.7353 25.4961C57.7342 24.6192 57.7121 24.5085 57.4236 23.9318C56.5861 22.2584 55.194 21.3885 53.3602 21.3929C52.7446 21.3944 52.3852 21.4503 51.907 21.6189ZM79.3169 21.5206C77.5004 22.0203 76.1097 23.6194 75.8302 25.5299C75.472 27.9774 77.0233 30.2027 79.5563 30.8751C80.4161 31.1033 81.8683 31.1517 82.7975 30.9832C83.2314 30.9044 83.6085 30.8179 83.6355 30.7909C83.691 30.7355 83.2789 28.5197 83.1849 28.3677C83.1431 28.3 82.9239 28.3042 82.4808 28.3813C81.5588 28.5418 80.3258 28.452 79.7553 28.183C79.3207 27.978 78.6558 27.4002 78.6558 27.2275C78.6558 27.1836 79.9933 27.1476 81.6281 27.1476H84.6005L84.757 26.6099C84.9943 25.7941 84.901 24.7064 84.527 23.929C83.9742 22.7798 83.0109 21.9282 81.8583 21.5698C81.1923 21.3626 79.9767 21.3391 79.3169 21.5206ZM54.422 24.2559C54.7419 24.4998 55.045 24.9401 55.045 25.1611C55.045 25.2266 54.469 25.2602 53.345 25.2602C51.7489 25.2602 51.6451 25.2494 51.6451 25.0842C51.6451 24.8008 51.9868 24.4459 52.519 24.1767C53.1816 23.8415 53.9185 23.8721 54.422 24.2559ZM81.2339 24.0665C81.606 24.2218 82.1502 24.8206 82.1502 25.0747C82.1502 25.2522 82.0772 25.2602 80.4502 25.2602C78.5756 25.2602 78.5441 25.2484 78.9398 24.693C79.3701 24.0892 80.5298 23.7725 81.2339 24.0665Z" fill="#373435"/>
<path d="M11.535 0.138088C10.8597 0.37968 10.3171 0.77557 9.96962 1.28018C9.55388 1.88406 9.43771 2.27514 9.43403 3.08277C9.42846 4.30904 10.0508 5.29089 11.1761 5.83069C11.6396 6.05303 11.8674 6.10258 12.4265 6.10258C13.7155 6.10277 14.6651 5.53097 15.2089 4.4271C15.4829 3.87087 15.5205 3.70317 15.5205 3.03757C15.5205 2.4015 15.4788 2.19558 15.2589 1.74817C14.9542 1.12833 14.3147 0.50208 13.7161 0.237461C13.0981 -0.0356508 12.1424 -0.0791562 11.535 0.138088Z" fill="#015CA3"/>
<path d="M13.5024 8.329C13.1655 9.55565 13.1067 11.1911 13.3559 12.406C13.9123 15.1197 16.0069 17.437 18.7558 18.3802C19.6519 18.6877 19.7167 18.696 21.2343 18.6987C22.608 18.701 22.8765 18.6752 23.501 18.4805C25.0548 17.996 26.7819 16.8796 27.4689 15.9155L27.6603 15.647L26.904 15.9744C24.6487 16.9511 22.0868 17.0199 19.8094 16.1652C16.9435 15.0895 14.7472 12.6514 14.0029 9.71967C13.8766 9.22223 13.7703 8.70394 13.7667 8.56786C13.763 8.43177 13.7259 8.23548 13.6843 8.13167C13.6198 7.97143 13.5925 8.00115 13.5024 8.329Z" fill="#015CA3"/>
<path d="M10.7643 8.46282C10.7286 11.0307 9.40985 13.7528 7.46885 15.2659C7.11847 15.539 6.78924 15.8022 6.7373 15.8509C6.67836 15.906 6.98001 15.9225 7.54006 15.8948C8.54655 15.8449 9.11642 15.6509 10.0069 15.0552C12.0461 13.6911 12.7626 10.892 11.6342 8.6979C11.3537 8.15262 10.9651 7.61262 10.8532 7.61262C10.8108 7.61262 10.7708 7.99521 10.7643 8.46282Z" fill="#015CA3"/>
</svg>
