<svg width="100" height="33" viewBox="0 0 100 33" fill="none" xmlns="http://www.w3.org/2000/svg">
<path d="M8.67338 10.1385C6.5095 10.7162 4.85948 11.6529 3.28162 13.1995C0.981169 15.4544 -0.123533 18.2246 0.0109537 21.4011C0.097747 23.4513 0.663368 25.1735 1.81057 26.8801C2.87372 28.4618 4.60297 29.984 6.3056 30.837C7.14378 31.2569 8.7325 31.7527 9.79253 31.9253C11.1112 32.1399 13.4609 32.0719 14.6233 31.7854C18.6657 30.7892 21.7264 28.1095 23.0601 24.3988C23.5003 23.1741 23.7712 21.1413 23.6206 20.1927L23.5466 19.7259L23.2762 20.5212C22.6591 22.3357 21.7375 23.79 20.2989 25.2194C17.8831 27.6197 14.976 28.8011 11.8451 28.6551C10.4525 28.5902 9.49447 28.3548 8.32678 27.7904C6.00149 26.6666 4.36894 24.567 3.80342 21.9732C3.581 20.9526 3.5793 19.0429 3.80002 18.0043C4.45139 14.9389 6.35773 12.1492 8.98098 10.4227C9.87687 9.83308 9.86356 9.82078 8.67338 10.1385Z" fill="white"/>
<path fill-rule="evenodd" clip-rule="evenodd" d="M33.1342 1.1543C32.3601 1.25179 31.7139 1.39039 30.9384 1.62498L30.112 1.87495V8.24106V14.6071H31.4342H32.7564V9.21573V3.82449L33.0975 3.76087C33.7208 3.6447 35.0315 3.77344 35.5697 4.00381C36.3838 4.35213 37.004 5.19515 37.0058 5.95606C37.0079 6.7851 36.4432 7.63291 35.6422 8.00346C35.243 8.18813 35.012 8.22454 34.2338 8.22529C33.5261 8.22604 33.3147 8.25438 33.352 8.34353C33.3789 8.40808 34.1656 9.83317 35.1 11.5105L36.799 14.5601L38.1888 14.5861C39.4641 14.6101 39.5734 14.5991 39.5169 14.4527C39.483 14.3649 38.9468 13.3921 38.3253 12.2907C37.7037 11.1894 37.1952 10.2557 37.1952 10.2158C37.1952 10.176 37.3164 10.0723 37.4645 9.98537C38.207 9.5496 39.0353 8.45482 39.3713 7.46494C39.5424 6.96086 39.5695 6.70037 39.5418 5.82601C39.5099 4.8245 39.4944 4.7575 39.1146 3.99621C38.5836 2.93164 37.8851 2.23444 36.8699 1.75607C36.4515 1.55892 35.9153 1.35201 35.6786 1.29627C35.1838 1.17973 33.6229 1.09265 33.1342 1.1543ZM62.081 1.34366C61.9771 1.36533 61.5203 1.47071 61.0658 1.57787L60.2394 1.77258V7.89349V14.0145L61.0658 14.262C62.1559 14.5887 62.9187 14.6997 64.0643 14.6986C65.8598 14.6968 67.0708 14.2661 68.1657 13.2399C70.9715 10.61 69.6055 5.9692 65.7881 5.16259C65.0908 5.01526 63.9206 5.03919 63.1435 5.21664L62.7894 5.29752V3.29V1.28238L62.5296 1.29327C62.3867 1.29927 62.1849 1.32189 62.081 1.34366ZM71.4949 1.44031C70.8144 1.77342 70.5059 2.75194 70.8642 3.44042C71.0547 3.80647 71.5438 4.16145 71.9643 4.23896C72.4231 4.32351 73.0744 4.03627 73.3757 3.61664C73.6814 3.19072 73.6965 2.35971 73.4055 1.96954C72.9195 1.31785 72.1694 1.1101 71.4949 1.44031ZM76.3892 1.42755C75.9996 1.49811 75.5109 1.61465 75.3031 1.68663L74.9253 1.81753V6.49975C74.9253 11.1755 74.9256 11.1828 75.1437 11.7193C75.7728 13.2665 77.1547 14.3333 78.8211 14.5579L79.3169 14.6247V13.3554C79.3169 13.263 79.3171 13.1773 79.3173 13.0977V13.0951C79.3189 12.4422 79.3195 12.2029 79.1996 12.0901C79.1303 12.0248 79.0207 12.0018 78.8477 11.9656C78.8109 11.9578 78.7712 11.9495 78.7284 11.9401C78.4124 11.8703 77.8446 11.3879 77.6594 11.032C77.5452 10.8126 77.5225 9.98425 77.5225 6.02578V1.28238L77.31 1.29083C77.1932 1.29542 76.7788 1.35698 76.3892 1.42755ZM81.3391 1.45983C80.1722 2.16678 80.3594 3.83847 81.6439 4.18219C82.1801 4.32557 82.5592 4.22573 83.0199 3.81951C83.3942 3.48931 83.4159 3.44117 83.4484 2.86971C83.4758 2.38824 83.4446 2.20732 83.2924 1.96644C82.9062 1.35539 81.9296 1.10203 81.3391 1.45983ZM86.1075 3.30755C85.7648 3.38074 85.3185 3.49766 85.1158 3.56738L84.7474 3.69406V9.12715V14.5601L86.046 14.5862L87.3446 14.6123V11.1499V7.68743L88.0765 7.6299C88.4791 7.59828 89.0779 7.60663 89.4072 7.64848C89.4642 7.65573 89.5159 7.66324 89.563 7.67008C89.7371 7.69538 89.8484 7.71155 89.9327 7.67149C90.0821 7.60043 90.1465 7.35245 90.3251 6.66462L90.3252 6.66448L90.3256 6.66271C90.3527 6.55832 90.3825 6.44381 90.4155 6.31827C90.6371 5.47694 90.6608 5.28804 90.5532 5.22198C90.3557 5.10075 89.1964 5.01592 88.218 5.0512L87.3441 5.08273L87.3444 4.12091L87.3446 3.1591L87.0377 3.16679C86.8688 3.17092 86.4502 3.23426 86.1075 3.30755ZM43.8691 5.13406C43.2198 5.24235 42.0984 5.79729 41.5923 6.26065C40.3336 7.41343 39.7364 9.17576 40.0687 10.757C40.2759 11.7431 40.6338 12.3907 41.398 13.1616C42.1472 13.9175 42.9309 14.3443 43.9719 14.5635C44.7428 14.7258 46.3159 14.7403 47.2116 14.5933C47.7476 14.5053 47.8673 14.454 47.8673 14.3121C47.8673 14.125 47.4212 11.9743 47.3724 11.9257C47.3561 11.9096 47.1527 11.9414 46.9203 11.9963C46.2453 12.156 44.8714 12.1307 44.2533 11.9474C43.85 11.8277 43.5927 11.671 43.2616 11.3432L42.8146 10.9006L45.7896 10.8536L48.7645 10.8067L48.9311 10.3375C49.0538 9.99213 49.0898 9.65404 49.0677 9.05565C49.0413 8.33902 48.9961 8.15933 48.6853 7.53447C47.777 5.70862 45.9334 4.78978 43.8691 5.13406ZM53.3686 5.17197C51.3305 5.63308 49.7711 7.26423 49.4611 9.25965C49.1308 11.3853 50.5231 13.6037 52.6839 14.3947C53.3121 14.6246 53.5151 14.6531 54.4784 14.6465C55.0757 14.6423 55.7344 14.59 55.9422 14.5301C56.1848 14.4603 56.3312 14.4546 56.3515 14.5142C56.3702 14.5693 56.8985 14.6071 57.65 14.6071H58.9172V10.198V5.78903L58.563 5.64096C57.3376 5.12852 54.6382 4.88483 53.3686 5.17197ZM72.0964 5.28476C71.7351 5.36171 71.2991 5.48294 71.1274 5.55426L70.8151 5.68384L70.8397 10.122L70.8643 14.5601L72.1628 14.5862L73.4614 14.6123V9.87099V5.12965L73.1073 5.13734C72.9125 5.14147 72.4576 5.20791 72.0964 5.28476ZM82.3863 5.19017C82.2824 5.21147 81.8681 5.31798 81.4655 5.42692L80.7336 5.62492V10.116V14.6071H82.0086H83.2835V9.86836V5.12965L82.9294 5.14053C82.7346 5.14654 82.4902 5.16887 82.3863 5.19017ZM93.0112 5.27134C92.6736 5.33965 92.2273 5.45198 92.0195 5.52095L91.6418 5.6465L91.6165 8.01735C91.5883 10.6678 91.6555 11.1719 92.1724 12.1893C92.9841 13.7869 95.0012 14.8454 96.907 14.6738L97.45 14.6249L97.4491 14.9209C97.4477 15.3679 97.0471 16.1318 96.6389 16.4662C96.0671 16.9345 95.552 17.0594 94.27 17.0405L93.1529 17.0241V18.3257V19.6273L94.2069 19.6537C96.5032 19.7114 98.199 18.9553 99.2368 17.4112L99.2521 17.3884L99.2523 17.3881C99.4047 17.1615 99.526 16.981 99.6226 16.7883C100 16.0352 100 15.095 100 10.4828V10.4825V10.3637V5.10807L99.4569 5.17159C99.1583 5.2065 98.5846 5.32154 98.182 5.4272L97.45 5.61938V8.78953C97.45 9.07184 97.4505 9.33006 97.451 9.56623V9.57121C97.4544 11.3652 97.4554 11.8844 97.2224 12.028C97.1274 12.0864 96.9937 12.0826 96.8055 12.0772C96.7444 12.0754 96.6774 12.0735 96.6042 12.0735C95.5847 12.0735 94.7966 11.6168 94.4184 10.8067C94.2609 10.4694 94.2429 10.1627 94.241 7.78051L94.239 5.12965L93.932 5.13847C93.7632 5.14335 93.3488 5.20312 93.0112 5.27134ZM45.6007 7.84169C45.9335 8.0091 46.3562 8.52078 46.3562 8.75622C46.3562 8.85822 46.0137 8.88308 44.6057 8.88308H42.8552L42.9648 8.67195C43.456 7.72543 44.6327 7.35478 45.6007 7.84169ZM56.2955 7.72412C56.3349 7.74833 56.3672 8.63273 56.3672 9.6896V11.611L55.9186 11.8125C55.326 12.0788 53.7393 12.1138 53.2978 11.8704C52.92 11.6622 52.4224 11.1668 52.2352 10.8124C52.0021 10.371 52.0276 9.39702 52.2847 8.91198C52.6149 8.28929 53.3396 7.82246 54.2142 7.66903C54.6809 7.58712 56.1352 7.62559 56.2955 7.72412ZM65.597 7.80688C66.1741 8.04644 66.5758 8.414 66.8125 8.91902C67.3912 10.1541 66.7815 11.4802 65.423 11.9409C64.9039 12.117 63.1391 12.1833 62.8988 12.0358C62.8217 11.9884 62.7894 11.4084 62.7894 10.0708V8.17284L63.0626 8.01247C63.6579 7.66312 64.9904 7.55502 65.597 7.80688ZM43.2396 17.3331C42.6057 17.4423 41.5078 17.9643 40.9562 18.4188C40.0024 19.2045 39.1818 20.5126 38.7819 21.8847C38.5932 22.532 38.5652 22.8337 38.5687 24.1783C38.5727 25.6637 38.5851 25.7628 38.8734 26.618C39.5794 28.7118 40.8752 30.1128 42.6675 30.7199C43.1722 30.8909 43.4966 30.9298 44.4202 30.9307C45.0934 30.9313 45.8027 30.8747 46.1674 30.7914C46.7793 30.6515 47.8673 30.2859 47.8673 30.2202C47.8673 30.2012 47.5854 29.6235 47.2408 28.9365L46.6143 27.6876L46.1311 27.8505C45.4468 28.0811 44.4116 28.1601 43.7806 28.03C42.8103 27.8298 42.0663 27.0516 41.6239 25.7735C41.3221 24.9017 41.3218 23.2645 41.6232 22.406C41.9044 21.6055 42.3924 20.8674 42.8658 20.5266C43.5864 20.008 44.8129 19.9343 46.1002 20.3323L46.647 20.5014L47.2571 19.2915C47.5928 18.6261 47.8673 18.0605 47.8673 18.0347C47.8673 17.9502 47.1867 17.7027 46.4169 17.5074C45.5493 17.2873 43.9986 17.2022 43.2396 17.3331ZM71.0531 19.4041C70.7415 19.4493 70.2102 19.564 69.8726 19.6591L69.2587 19.832L69.2344 25.2894L69.21 30.7468H70.4857H71.7615V27.326V23.9054L72.1042 23.8414C72.2927 23.8063 72.9092 23.7993 73.4743 23.826L74.5016 23.8743L74.6364 23.3929C74.9844 22.1502 75.165 21.4293 75.1355 21.4001C75.0332 21.2984 73.1114 21.1674 72.4934 21.2201L71.7615 21.2823V20.2906C71.7615 19.7451 71.7296 19.3041 71.6906 19.3104C71.6516 19.3168 71.3648 19.359 71.0531 19.4041ZM61.2035 21.2696C60.4409 21.3763 59.1604 21.7058 58.8108 21.8854L58.5394 22.0249V26.3859V30.7468H59.8616H61.1838V27.326V23.9054L61.5242 23.8418C61.7114 23.807 62.2618 23.799 62.7472 23.8243C63.7804 23.878 64.4983 24.1657 64.9463 24.7057C65.3925 25.2435 65.4338 25.5433 65.4338 28.2476V30.7468H66.7633H68.0927L68.0585 27.9083C68.0257 25.1907 68.0147 25.0457 67.8017 24.5067C67.1824 22.94 65.9578 21.8562 64.2962 21.4039C63.6589 21.2304 61.9991 21.1583 61.2035 21.2696ZM88.0529 21.3256C87.5854 21.398 86.8842 21.5539 86.4946 21.6722L85.7863 21.8873L85.7617 26.317L85.7372 30.7468H87.0131H88.289V27.326V23.9054L88.6318 23.8414C88.8203 23.8063 89.437 23.7993 90.0022 23.826L91.03 23.8744L91.0877 23.6275C91.1194 23.4918 91.262 22.9469 91.4045 22.4166C91.5469 21.8864 91.6281 21.4307 91.5847 21.4042C91.4561 21.3251 89.9838 21.1763 89.4224 21.1855C89.1367 21.1902 88.5204 21.2532 88.0529 21.3256ZM51.907 21.4961C48.5588 22.6703 47.5723 26.8914 50.0669 29.37C51.0472 30.344 52.2235 30.8061 53.9589 30.8989C54.8291 30.9455 56.3723 30.7731 56.5353 30.611C56.5867 30.56 56.1243 28.2222 56.0478 28.1462C56.0279 28.1264 55.7237 28.1599 55.3719 28.2208C54.5126 28.3695 53.2281 28.2853 52.6717 28.044C52.2444 27.8586 51.5506 27.2646 51.5506 27.0841C51.5506 27.0276 52.671 26.9934 54.5182 26.9934H57.4859L57.6112 26.6415C57.6839 26.4375 57.7361 25.8952 57.7353 25.3513C57.7342 24.4793 57.7121 24.3693 57.4236 23.7958C56.5861 22.1319 55.194 21.267 53.3602 21.2714C52.7446 21.2729 52.3852 21.3284 51.907 21.4961ZM79.3169 21.3983C77.5004 21.8952 76.1097 23.4852 75.8302 25.3849C75.472 27.8185 77.0233 30.0311 79.5563 30.6997C80.4161 30.9266 81.8683 30.9748 82.7975 30.8072C83.2314 30.7288 83.6085 30.6429 83.6355 30.616C83.691 30.5609 83.2789 28.3577 83.1849 28.2066C83.1431 28.1392 82.9239 28.1434 82.4808 28.2201C81.5588 28.3796 80.3258 28.2904 79.7553 28.0229C79.3207 27.8191 78.6558 27.2446 78.6558 27.0729C78.6558 27.0291 79.9933 26.9934 81.6281 26.9934H84.6005L84.757 26.4587C84.9943 25.6476 84.901 24.566 84.527 23.793C83.9742 22.6504 83.0109 21.8036 81.8583 21.4472C81.1923 21.2413 79.9767 21.2179 79.3169 21.3983ZM54.422 24.1181C54.7419 24.3606 55.045 24.7984 55.045 25.0181C55.045 25.0833 54.469 25.1167 53.345 25.1167C51.7489 25.1167 51.6451 25.106 51.6451 24.9417C51.6451 24.6599 51.9868 24.3071 52.519 24.0393C53.1816 23.706 53.9185 23.7365 54.422 24.1181ZM81.2339 23.9297C81.606 24.0842 82.1502 24.6796 82.1502 24.9323C82.1502 25.1088 82.0772 25.1167 80.4502 25.1167C78.5756 25.1167 78.5441 25.1049 78.9398 24.5527C79.3701 23.9524 80.5298 23.6374 81.2339 23.9297Z" fill="white"/>
<path d="M11.535 0.137303C10.8597 0.377523 10.3171 0.771164 9.96962 1.2729C9.55388 1.87336 9.43771 2.26222 9.43403 3.06526C9.42846 4.28456 10.0508 5.26083 11.1761 5.79757C11.6396 6.01865 11.8674 6.06791 12.4265 6.06791C13.7155 6.0681 14.6651 5.49955 15.2089 4.40195C15.4829 3.84888 15.5205 3.68214 15.5205 3.02031C15.5205 2.38786 15.4788 2.18311 15.2589 1.73824C14.9542 1.12192 14.3147 0.499228 13.7161 0.236113C13.0981 -0.0354483 12.1424 -0.0787066 11.535 0.137303Z" fill="white"/>
<path d="M13.5024 8.28169C13.1655 9.50137 13.1067 11.1275 13.3559 12.3355C13.9123 15.0338 16.0069 17.338 18.7558 18.2758C19.6519 18.5816 19.7167 18.5898 21.2343 18.5925C22.608 18.5948 22.8765 18.5691 23.501 18.3755C25.0548 17.8938 26.7819 16.7837 27.4689 15.8251L27.6603 15.5581L26.904 15.8837C24.6487 16.8548 22.0868 16.9232 19.8094 16.0733C16.9435 15.0038 14.7472 12.5796 14.0029 9.66445C13.8766 9.16984 13.7703 8.6545 13.7667 8.51919C13.763 8.38388 13.7259 8.1887 13.6843 8.08548C13.6198 7.92614 13.5925 7.9557 13.5024 8.28169Z" fill="white"/>
<path d="M10.7643 8.41475C10.7286 10.968 9.40985 13.6747 7.46885 15.1792C7.11847 15.4507 6.78924 15.7125 6.7373 15.7609C6.67836 15.8157 6.98001 15.8321 7.54006 15.8045C8.54655 15.7549 9.11642 15.562 10.0069 14.9696C12.0461 13.6133 12.7626 10.8302 11.6342 8.64849C11.3537 8.10631 10.9651 7.56938 10.8532 7.56938C10.8108 7.56938 10.7708 7.94979 10.7643 8.41475Z" fill="white"/>
</svg>
